<?xml version="1.0" standalone="no"?><!DOCTYPE svg PUBLIC "-//W3C//DTD SVG 1.1//EN" "http://www.w3.org/Graphics/SVG/1.1/DTD/svg11.dtd"><svg t="1591416431563" class="icon" viewBox="0 0 1211 1024" version="1.1" xmlns="http://www.w3.org/2000/svg" p-id="4055" data-spm-anchor-id="a313x.7781069.0.i6" xmlns:xlink="http://www.w3.org/1999/xlink" width="236.5234375" height="200"><defs><style type="text/css"></style></defs><path d="M921.639033 354.241807h140.069167v669.758193H921.639033z" fill="#efb336" p-id="4056" data-spm-anchor-id="a313x.7781069.0.i5" class="selected"></path><path d="M993.471498 864.639091V399.543691A67.349589 67.349589 0 0 0 926.145565 332.217758H449.375764L325.475703 193.047532h-188.067874a67.325933 67.325933 0 0 0-67.349589 67.337761v610.546383a67.349589 67.349589 0 0 0 67.349589 67.337761h928.795075z m0 0" fill="#efb336" p-id="4057" data-spm-anchor-id="a313x.7781069.0.i3" class=""></path><path d="M594.838576 152.64251a67.325933 67.325933 0 0 0-67.302277 67.337761v648.254583a67.337761 67.337761 0 0 0 67.302277 67.337761h508.173587a67.314105 67.314105 0 0 0 67.337761-67.337761V404.487866L916.257216 152.64251H594.838576z m0 0" fill="#F2F2F2" p-id="4058" data-spm-anchor-id="a313x.7781069.0.i9" class=""></path><path d="M1170.349924 404.487866L916.257216 152.64251v185.856006a67.337761 67.337761 0 0 0 67.337762 67.349589z m0 0" fill="#E3E3E3" p-id="4059"></path><path d="M924.335855 956.224597V483.949499a67.337761 67.337761 0 0 0-67.337761-67.349589H381.588532L257.676643 277.441512H67.337761A67.337761 67.337761 0 0 0 0 344.779273v611.445324a67.349589 67.349589 0 0 0 67.337761 67.337761H991.673616a67.337761 67.337761 0 0 1-67.337761-67.337761z m0 0" fill="#fde2aa" p-id="4060" data-spm-anchor-id="a313x.7781069.0.i2" class=""></path><path d="M256.777702 659.479514a35.023206 35.023206 0 1 0 35.023206-35.011377 35.023206 35.023206 0 0 0-35.023206 35.011377z m328.621995 0a35.011378 35.011378 0 1 0 35.011378-35.011377 35.046862 35.046862 0 0 0-35.011378 35.011377zM416.59991 801.796033h-3.548451a8.528109 8.528109 0 0 1-4.045233-11.213103c0-4.045234 19.315399-41.303963 48.034191-42.652374 17.966987 0 35.011378 13.460455 49.832072 41.753433a8.539937 8.539937 0 0 1-14.820695 8.066811c-11.674402-21.988565-23.786446-33.674795-34.573735-33.225324s-29.57042 24.247745-33.225324 32.326383a8.504453 8.504453 0 0 1-7.629169 4.932346z m0 0" fill="#facc75" p-id="4061" data-spm-anchor-id="a313x.7781069.0.i7" class=""></path><path d="M1067.988957 133.78841a12.561515 12.561515 0 0 0-12.561514 12.561514v74.51746a12.573343 12.573343 0 0 0 25.134857 0v-74.51746a12.561515 12.561515 0 0 0-12.573343-12.561514z m130.642117 127.46034h-74.517459a12.573343 12.573343 0 0 0 0 25.134857h74.517459a12.573343 12.573343 0 0 0 0-25.134857z m-28.28115-68.603376a12.699904 12.699904 0 0 0-17.955159-17.966987l-52.528895 52.978365a12.703453 12.703453 0 0 0 17.966988 17.955159z m0 0" fill="#E3E3E3" p-id="4062"></path><path d="M371.712012 58.37201l36.809259 10.325991-36.809259 9.87652-10.325991 60.607533-9.87652-60.607533-35.011378-9.87652 35.011378-10.325991 9.87652-38.169499zM479.040809 30.079032l29.180091 8.078638L479.040809 45.798667l-7.629168 47.58472-8.078639-47.58472-27.370381-7.629168 27.370381-8.078639L471.411641 0.011828z m0 0" fill="#facc75" p-id="4063" data-spm-anchor-id="a313x.7781069.0.i8" class=""></path></svg>