<?xml version="1.0" standalone="no"?><!DOCTYPE svg PUBLIC "-//W3C//DTD SVG 1.1//EN" "http://www.w3.org/Graphics/SVG/1.1/DTD/svg11.dtd"><svg t="1591416525908" class="icon" viewBox="0 0 1160 1024" version="1.1" xmlns="http://www.w3.org/2000/svg" p-id="4979" xmlns:xlink="http://www.w3.org/1999/xlink" width="226.5625" height="200"><defs><style type="text/css"></style></defs><path d="M954.368 278.528m-27.306667 0a27.306667 27.306667 0 1 0 54.613334 0 27.306667 27.306667 0 1 0-54.613334 0Z" fill="#E5F6FC" p-id="4980"></path><path d="M933.888 824.661333v-13.653333c0-3.413333-2.730667-6.826667-6.826667-6.826667s-6.826667 2.730667-6.826666 6.826667v13.653333h-13.653334c-3.413333 0-6.826667 2.730667-6.826666 6.826667s2.730667 6.826667 6.826666 6.826667h13.653334v13.653333c0 3.413333 2.730667 6.826667 6.826666 6.826667s6.826667-2.730667 6.826667-6.826667v-13.653333h13.653333c3.413333 0 6.826667-2.730667 6.826667-6.826667s-2.730667-6.826667-6.826667-6.826667h-13.653333zM174.08 423.936l4.778667-4.778667c2.730667-2.730667 2.730667-6.826667 0-9.557333-2.730667-2.730667-6.826667-2.730667-9.557334 0l-5.461333 4.096-4.778667-4.778667c-2.730667-2.730667-6.826667-2.730667-9.557333 0-2.730667 2.730667-2.730667 6.826667 0 9.557334l4.778667 4.778666-4.778667 4.778667c-2.730667 2.730667-2.730667 6.826667 0 9.557333 2.730667 2.730667 6.826667 2.730667 9.557333 0l4.778667-4.778666 4.778667 4.778666c2.730667 2.730667 6.826667 2.730667 9.557333 0 2.730667-2.730667 2.730667-6.826667 0-9.557333l-4.096-4.096zM271.701333 53.248c0-4.096 2.730667-6.826667 6.826667-6.826667s6.826667 2.730667 6.826667 6.826667v13.653333c0 4.096-2.730667 6.826667-6.826667 6.826667s-6.826667-2.730667-6.826667-6.826667v-13.653333z m0 40.96c0-4.096 2.730667-6.826667 6.826667-6.826667s6.826667 2.730667 6.826667 6.826667v13.653333c0 4.096-2.730667 6.826667-6.826667 6.826667s-6.826667-2.730667-6.826667-6.826667v-13.653333z m34.133334-20.48c4.096 0 6.826667 2.730667 6.826666 6.826667s-2.730667 6.826667-6.826666 6.826666h-13.653334c-4.096 0-6.826667-2.730667-6.826666-6.826666s2.730667-6.826667 6.826666-6.826667h13.653334z m-40.96 0c4.096 0 6.826667 2.730667 6.826666 6.826667s-2.730667 6.826667-6.826666 6.826666h-13.653334c-4.096 0-6.826667-2.730667-6.826666-6.826666s2.730667-6.826667 6.826666-6.826667h13.653334zM940.714667 297.642667c-17.749333 0-32.768-14.336-32.768-32.768s14.336-32.768 32.768-32.768 32.768 14.336 32.768 32.768-15.018667 32.768-32.768 32.768z m0-10.24c12.288 0 21.845333-10.24 21.845333-21.845334s-10.24-22.528-21.845333-22.528-21.845333 10.24-21.845334 22.528 9.557333 21.845333 21.845334 21.845334zM247.808 741.376c-12.288 0-21.845333-10.24-21.845333-21.845333s10.24-21.845333 21.845333-21.845334 21.845333 10.24 21.845333 21.845334-9.557333 21.845333-21.845333 21.845333z m0-10.24c6.826667 0 12.288-5.461333 12.288-12.288s-5.461333-12.288-12.288-12.288-12.288 5.461333-12.288 12.288 5.461333 12.288 12.288 12.288z" fill="#7FD6F4" p-id="4981"></path><path d="M875.861333 391.168m-17.066666 0a17.066667 17.066667 0 1 0 34.133333 0 17.066667 17.066667 0 1 0-34.133333 0Z" fill="#D3F2FD" p-id="4982"></path><path d="M688.128 510.634667m-81.92 0a81.92 81.92 0 1 0 163.84 0 81.92 81.92 0 1 0-163.84 0Z" fill="#FFE8C4" p-id="4983"></path><path d="M667.648 599.381333c-52.565333 0-95.573333-43.008-95.573333-95.573333s43.008-95.573333 95.573333-95.573333 95.573333 43.008 95.573333 95.573333-43.008 95.573333-95.573333 95.573333z m0-13.653333c45.056 0 81.92-36.864 81.92-81.92s-36.864-81.92-81.92-81.92-81.92 36.864-81.92 81.92 36.864 81.92 81.92 81.92z" fill="#F9C069" p-id="4984"></path><path d="M733.866667 503.808c0-31.402667-22.528-58.709333-52.565334-64.853333-2.730667-0.682667-5.461333 1.365333-6.144 4.096s1.365333 5.461333 4.096 6.144c25.941333 5.461333 44.373333 28.672 44.373334 55.296 0 2.730667 2.048 5.461333 5.461333 5.461333s4.778667-3.413333 4.778667-6.144z" fill="#F9C069" p-id="4985"></path><path d="M484.693333 501.76l4.778667 4.778667c2.730667 2.730667 6.826667 2.730667 9.557333 0 2.730667-2.730667 2.730667-6.826667 0-9.557334l-4.778666-4.778666 4.778666-4.778667c2.730667-2.730667 2.730667-6.826667 0-9.557333-2.730667-2.730667-6.826667-2.730667-9.557333 0l-4.778667 4.096-4.778666-4.778667c-2.730667-2.730667-6.826667-2.730667-9.557334 0-2.730667 2.730667-2.730667 6.826667 0 9.557333l4.778667 4.778667-4.778667 4.778667c-2.730667 2.730667-2.730667 6.826667 0 9.557333 2.730667 2.730667 6.826667 2.730667 9.557334 0l4.778666-4.096z" fill="#444444" p-id="4986"></path><path d="M522.922667 605.525333c11.605333-14.336 36.864-26.624 55.978666-26.624 19.114667 0 43.690667 11.605333 55.978667 26.624l18.432 22.528c11.605333 14.336 6.144 26.624-12.288 26.624h-122.88c-19.114667 0-24.576-11.605333-12.288-26.624l17.066667-22.528z" fill="#848380" p-id="4987"></path><path d="M612.352 653.994667h-66.901333c3.413333-15.701333 17.066667-27.306667 33.450666-27.306667s30.037333 11.605333 33.450667 27.306667z" fill="#DED9D0" p-id="4988"></path><path d="M678.570667 496.981333l14.336-14.336c4.096-4.096 4.096-10.24 0-14.336-3.413333-4.096-10.24-4.096-14.336 0l-14.336 14.336-14.336-14.336c-4.096-4.096-10.24-4.096-14.336 0-4.096 4.096-4.096 10.24 0 14.336l14.336 14.336-14.336 14.336c-4.096 4.096-4.096 10.24 0 14.336 4.096 4.096 10.24 4.096 14.336 0l14.336-14.336 14.336 14.336c4.096 4.096 10.24 4.096 14.336 0 4.096-4.096 4.096-10.24 0-14.336l-14.336-14.336z" fill="#444444" p-id="4989"></path><path d="M339.968 947.541333a235.52 40.96 0 1 0 471.04 0 235.52 40.96 0 1 0-471.04 0Z" fill="#EBEBEB" p-id="4990"></path><path d="M306.517333 546.816c-0.682667 6.144-0.682667 12.288-0.682666 18.432 0 150.869333 122.197333 273.066667 273.066666 273.066667s273.066667-122.197333 273.066667-273.066667c0-125.610667-84.650667-231.424-200.704-263.509333 78.506667 35.498667 132.437333 107.861333 132.437333 191.829333 0 118.784-108.544 215.04-242.346666 215.04-113.322667 0-208.213333-68.949333-234.837334-161.792z" fill="#E5F6FC" p-id="4991"></path><path d="M466.261333 291.498667l49.834667-70.997334c2.048-3.413333 6.144-4.096 9.557333-1.365333 3.413333 2.048 4.096 6.144 1.365334 9.557333l-62.122667 88.746667c-0.682667 0.682667-1.365333 2.048-2.730667 2.048-0.682667 0-1.365333 0.682667-2.048 1.365333-4.778667 2.048-10.24-1.365333-9.557333-6.826666l8.874667-98.304c2.730667-33.450667-21.845333-63.488-55.978667-66.218667-34.133333-2.730667-63.488 21.845333-66.218667 55.978667l-14.336 166.570666c0 4.096-3.413333 6.826667-7.509333 6.144-4.096 0-6.826667-3.413333-6.144-7.509333l14.336-166.570667c3.413333-41.642667 40.277333-71.68 81.237333-68.266666 41.642667 3.413333 71.68 40.277333 68.266667 81.237333l-6.826667 74.410667zM303.786667 421.888l-8.874667 104.448c-2.048 12.970667-2.730667 25.941333-2.730667 38.912 0 158.378667 128.341333 286.72 286.72 286.72 111.274667 0 210.944-63.488 258.048-161.792 1.365333-3.413333 0-7.509333-3.413333-8.874667-3.413333-1.365333-7.509333 0-8.874667 3.413334a272.5888 272.5888 0 0 1-245.76 154.282666c-150.869333 0-273.066667-122.197333-273.066666-273.066666 0-12.970667 0.682667-25.258667 2.730666-37.546667L317.44 423.253333c0-4.096-2.730667-6.826667-6.144-7.509333-3.413333 0-6.826667 2.730667-7.509333 6.144z m548.864 228.693333c8.192-27.306667 12.970667-55.296 12.970666-84.650666 0-24.576-2.730667-48.469333-8.874666-70.997334-0.682667-3.413333-4.778667-6.144-8.192-4.778666s-6.144 4.778667-4.778667 8.192c5.461333 21.845333 8.192 45.056 8.192 67.584 0 27.306667-4.096 54.613333-12.288 80.554666-1.365333 3.413333 0.682667 7.509333 4.778667 8.874667s7.509333-1.365333 8.192-4.778667z m-4.778667-185.002666c-4.096-10.24-8.192-20.48-13.653333-30.72-2.048-3.413333-6.144-4.778667-8.874667-2.730667s-4.778667 6.144-2.730667 8.874667c4.778667 9.557333 8.874667 19.114667 12.970667 29.354666 1.365333 3.413333 5.461333 5.461333 8.874667 4.096 2.730667-1.365333 4.778667-4.778667 3.413333-8.874666zM694.954667 225.962667c23.893333-34.133333 15.701333-80.554667-18.432-104.448s-80.554667-15.701333-104.448 18.432L536.576 191.146667c-2.048 3.413333-1.365333 7.509333 1.365333 9.557333 3.413333 2.048 7.509333 1.365333 9.557334-1.365333l35.498666-51.2c19.797333-27.989333 58.026667-34.816 85.333334-15.018667C696.32 152.234667 703.146667 190.464 684.032 218.453333L634.88 288.768c-2.730667 4.096-0.682667 9.557333 4.096 10.24 66.901333 15.018667 124.928 54.613333 164.522667 110.592 2.048 3.413333 6.144 4.096 9.557333 1.365333 3.413333-2.048 4.096-6.144 1.365333-9.557333-38.912-55.978667-96.938667-96.256-162.474666-113.322667l43.008-62.122666z" fill="#00ADE9" p-id="4992"></path><path d="M351.573333 393.216l14.336-163.157333c2.048-22.528 21.845333-38.912 44.373334-36.864 4.096 0 6.826667-2.730667 7.509333-6.144 0-4.096-2.730667-6.826667-6.144-7.509334-30.037333-2.730667-56.661333 19.797333-59.392 49.834667l-14.336 163.157333c0 4.096 2.730667 6.826667 6.144 7.509334s6.826667-3.413333 7.509333-6.826667zM598.016 173.397333c10.24-15.701333 31.402667-20.48 47.104-10.24 15.701333 10.24 20.48 31.402667 10.24 47.104-2.048 3.413333-1.365333 7.509333 2.048 9.557334 3.413333 2.048 7.509333 1.365333 9.557333-2.048 14.336-21.845333 8.192-51.882667-14.336-66.218667-21.845333-14.336-51.882667-8.192-66.218666 14.336-2.048 3.413333-1.365333 7.509333 2.048 9.557333 3.413333 2.048 7.509333 1.365333 9.557333-2.048z" fill="#D7EFF7" p-id="4993"></path><path d="M827.392 642.389333l39.594667 39.594667c2.730667 2.730667 2.730667 6.826667 0 9.557333l-4.778667 4.778667c-2.730667 2.730667-6.826667 2.730667-9.557333 0l-37.546667-37.546667L805.546667 669.013333l37.546666 37.546667c8.192 8.192 21.162667 8.192 28.672 0l4.778667-4.778667c8.192-8.192 8.192-21.162667 0-28.672l-39.594667-39.594666-9.557333 8.874666zM746.154667 561.152l17.749333 17.749333 9.557333-9.557333-27.306666-27.306667-33.450667 33.450667 27.306667 27.306667 9.557333-9.557334-17.749333-17.749333 14.336-14.336z" fill="#F9C069" p-id="4994"></path><path d="M428.714667 616.448v68.266667c0 20.48-17.066667 37.546667-37.546667 37.546666s-37.546667-17.066667-37.546667-37.546666v-43.690667c0-4.096-2.730667-6.826667-6.826666-6.826667s-6.826667 2.730667-6.826667 6.826667v43.690667c0 27.989333 23.210667 51.2 51.2 51.2s51.2-23.210667 51.2-51.2v-68.266667c0-4.096-2.730667-6.826667-6.826667-6.826667s-6.826667 3.413333-6.826666 6.826667z m337.237333-28.672l-14.336 14.336c-15.018667 15.018667-15.018667 38.229333 0 53.248 14.336 14.336 38.229333 14.336 53.248 0l14.336-14.336c15.018667-15.018667 15.018667-38.229333 0-53.248-14.336-14.336-38.229333-14.336-53.248 0z m-9.557333-9.557333c19.797333-19.797333 52.565333-19.797333 72.362666 0 19.797333 19.797333 19.797333 52.565333 0 72.362666l-14.336 14.336c-19.797333 19.797333-52.565333 19.797333-72.362666 0-19.797333-19.797333-19.797333-52.565333 0-72.362666l14.336-14.336z" fill="#00ADE9" p-id="4995"></path><path d="M435.541333 551.594667m-27.306666 0a27.306667 27.306667 0 1 0 54.613333 0 27.306667 27.306667 0 1 0-54.613333 0Z" fill="#FFBCBC" p-id="4996"></path><path d="M783.701333 278.528h13.653334v27.306667h-13.653334zM749.568 278.528h13.653333v54.613333h-13.653333zM715.434667 278.528h13.653333v81.92h-13.653333z" fill="#444444" p-id="4997"></path></svg>